<?xml version="1.0" encoding="utf-8"?>
<!-- Generator: Adobe Illustrator 27.5.0, SVG Export Plug-In . SVG Version: 6.00 Build 0)  -->
<svg version="1.1" xmlns="http://www.w3.org/2000/svg" xmlns:xlink="http://www.w3.org/1999/xlink" x="0px" y="0px"
	 viewBox="0 0 500 500" style="enable-background:new 0 0 500 500;" xml:space="preserve">
<g id="BACKGROUND">
	<rect style="fill:#F8EFEF;" width="500" height="500"/>
</g>
<g id="OBJECTS">
	<g>
		<ellipse style="fill:#F8EFEF;" cx="277.878" cy="334.524" rx="53.787" ry="4.416"/>
		<g>
			<g>
				<path style="fill:#DA697C;" d="M288.46,202.539c-6.597,0-11.944,5.348-11.944,11.944c0,6.597,5.348,11.944,11.944,11.944
					c6.596,0,11.944-5.348,11.944-11.944C300.404,207.887,295.056,202.539,288.46,202.539z"/>
			</g>
			<g>
				<path style="fill:#0C0A3F;" d="M354.523,205.336c0,0-1.531,0.653-4.978-2.805l-0.396,2.313c-0.139,0.792-1.242,0.899-1.51,0.15
					c-0.589-1.67-0.888-4.304-1.028-5.835l-7.687-4.304l2.462,3.693l2.387,2.869c0.621,0.749-0.107,1.852-1.017,1.563
					c-0.471-0.15-1.006-0.385-1.584-0.674c-2.751-1.413-5.053-3.565-6.777-6.135l-4.914-7.366
					c-15.449-0.396-32.996-3.811-51.624-8.768l-0.032-0.011l-25.855-8.601l-1.413-0.417c0,0-4.861-12.785,4.903-17.495
					c1.413,0.771,2.784,1.617,4.079,2.569l19.26,12.982l0.128,0.032l52.587,15.738c0,0,11.338,5.075,18.05,12.215L354.523,205.336z"
					/>
				<g>
					<path style="fill:#0C0A3F;" d="M289.577,208.126l-4.358-1.147c0,0-16.351,15.213-16.721,14.248
						c-5.261,3.018-11.928,8.686-19.595,19.134c0,0-8.544-7.616-12.312,2.517l-2,7.036l-6.795,4.993
						c-0.289-0.928-0.6-1.861-0.959-2.77l-2.504-6.285c0,0,0.869-4.837,1.911-11.81c3.071-17.099,1.918-11.632,2.098-14.083
						c-13.101-1.434-20.698,4.481-22.274,5.921c0.3,3.809,0.799,7.602,1.437,11.356c1.525,9.094,5.677,18.249,6.701,27.279
						l4.249,37.207c0.127,1.093,0.123,2.183,0.063,3.283c-0.573,10.695,2.763,22.887,4.151,27.441
						c0.489,1.588,4.714-7.336,3.631-11.667c-0.409-1.606-0.865-5.044-0.851-5.118c0.595-1.782,1.691-3.391,3.204-4.506
						c2.188-1.616,7.263-5.907-3.297-14.457l3.698-25.967c0.436-3.045,0.462-6.115,0.132-9.145
						c4.673-2.346,9.518-5.128,18.276-13.097c0,0,14.805-6.364,27.855-14.255c0.013-0.008,0.027-0.027,0.04-0.036
						c5.26-3.182,10.23-6.615,13.849-9.994c0.002-0.01,0.012-0.008,0.015-0.019c2.834-2.647,4.812-5.264,5.422-7.686
						C294.643,216.498,296.387,213.172,289.577,208.126z"/>
				</g>
				<g>
					<path style="fill:#DA697C;" d="M248.003,248.254c0.664-0.292,1.933-0.855,3.622-1.633c0.046-0.58,0.098-1.159,0.137-1.739
						c0.155-2.283,0.251-4.571,0.234-6.859c-0.004-0.541-0.034-1.081-0.053-1.62c-0.995,1.239-2.008,2.552-3.04,3.959
						c0,0-9.544-8.616-13.312,1.517l-1,7.036l-6.32,5.574c0.011,1.389,0.356,2.778,0.71,4.116c0.24,0.908,0.492,1.817,0.696,2.735
						c0.714-0.363,1.438-0.743,2.18-1.151c0.295-2.326,1.437-4.504,2.669-6.466c1.018-1.622,2.138-3.178,3.15-4.807
						c0.779-1.253,1.564-2.522,2.557-3.621c2.273-2.518,5.449-3.187,8.729-3.113c0.328,0.007,0.633,0.339,0.516,0.678
						C248.865,244.624,248.398,246.43,248.003,248.254z"/>
				</g>
				<g>
					<g>
						<path style="fill:#DA697C;" d="M218.716,299.383c2.455-1.1,4.73-2.619,6.866-4.262l0.62-4.355
							c-2.755,1.411-5.643,2.479-8.667,2.903l0.676,5.923C218.38,299.523,218.551,299.457,218.716,299.383z"/>
						<path style="fill:#DA697C;" d="M225.357,296.699l0.012-0.084c-0.046,0.034-0.094,0.065-0.14,0.099
							c0.128,1.565-0.281,3.082-0.69,4.581c-0.424,1.551-0.705,3.121-0.8,4.728c-0.155,2.607,0.142,5.201,0.417,7.789
							c0.268,2.521,0.473,5.058,0.432,7.596c-0.033,2.041-0.271,4.113-1.049,6.016c-0.397,0.97-0.93,1.853-1.555,2.664
							c0.256,0.915,0.491,1.719,0.686,2.359c0.489,1.588,2.257,2.54,3.764,1.85c0.955-0.426,1.75-1.439,1.778-3.615
							c0.023-2.318,0.172-5.572-0.911-9.902c-0.409-1.606,0.135-5.044,0.149-5.118c0.595-1.782,1.691-3.391,3.204-4.506
							C232.842,309.539,235.917,305.249,225.357,296.699z"/>
					</g>
				</g>
				<g>
					<path style="fill:#F4C2C0;" d="M301.907,216.577c-2.227,6.135-6.884,11.081-12.686,14.057
						c-5.813,2.965-14.089,3.79-13.907,3.597c0,0,16.391-9.314,20.181-18.339c1.006-2.42,1.231-4.582,0-6.284
						c-0.749-1.028-1.938-1.617-3.19-1.841c-3.544-0.632-11.734,0.011-20.331,15.47c-0.985,1.767-1.981,3.747-2.976,5.931
						c0,0,0-0.011-0.011-0.032c-0.15-0.31-0.268-0.621-0.417-0.931c-0.353-0.739-0.707-1.467-1.103-2.195
						c-0.011-0.021-0.021-0.043-0.032-0.075c-0.075-0.161-0.161-0.31-0.246-0.471c-0.161-0.311-0.45-0.76-0.857-1.274
						c-0.011-0.011-0.021-0.032-0.043-0.053c-1.617-2.013-5.107-4.764-10.106-2.205c-1.274,0.653-2.869,1.713-4.721,3.597
						c-0.771,0.782-1.488,1.627-2.173,2.494c-1.938,2.43-8.939,10.588-18.425,14.507c-1.231,0.514-2.505,0.964-3.822,1.306
						c-2.751,0.728-5.653,1.038-8.661,0.76c1.659-2.216,2.698-9.229,2.205-7.366c0.182-0.674,0.235-1.328,0.096-1.959
						c-0.171-0.867-0.707-1.67-1.756-2.302c0,0-0.096-0.118-0.311-0.268c-0.835-0.578-3.298-1.638-7.837,1.242
						c-0.236,0.161-0.492,0.321-0.739,0.482c-1.402,0.985-2.719,2.387-4.09,4.036c-4.133,4.946-8.64,11.937-16.99,15.245
						c-20.812,8.233-36.657-0.011-43.659-11.884c-0.364-0.599-0.096-1.36,0.557-1.617c15.802-6.059,29.495-15.427,39.451-29.216
						c4.229-5.856,7.74-12.194,12.012-18.018c2.42-3.308,5.139-6.498,8.447-8.939c0.118-0.096,0.225-0.182,0.343-0.268
						c3.372-2.42,7.28-4.347,10.224-7.323c0.985,0.749,7.993,9.078,21.332,10.374c0.653,0.064,1.306,0.086,1.959,0.107
						c0.17,0.096,0.362,0.202,0.575,0.33c1.441,0.864,2.694,2.071,4.284,2.652c1.338,0.49,2.767,0.743,4.169,0.968
						c2.899,0.465,5.861,0.605,8.738,1.199c7.633,1.574,17.622,2.816,30.33,4.057c3.694,0.364,7.248,1.713,10.128,4.068
						C301.575,203.27,304.851,208.452,301.907,216.577z"/>
					<g style="opacity:0.48;">
						<path style="opacity:0.56;fill:#DA697C;" d="M230.862,242.528c-1.231,0.514-2.505,0.964-3.822,1.306
							c-2.751,0.728-5.653,1.038-8.661,0.76c1.659-2.216,2.698-9.229,2.205-7.366c0.182-0.674,0.235-1.328,0.096-1.959
							c0,0,3.501-5.91-2.655-26.272C218.026,208.997,235.145,222.733,230.862,242.528z"/>
						<path style="opacity:0.56;fill:#DA697C;" d="M271.973,223.236c-0.985,1.767-1.981,3.747-2.976,5.931c0,0,0-0.011-0.011-0.032
							c-0.064-0.203-0.471-1.327-1.52-3.126c-0.011-0.021-0.021-0.043-0.032-0.075c-0.311-0.525-0.674-1.103-1.103-1.745
							c-0.011-0.011-0.021-0.032-0.043-0.053c-3.04-4.496-9.218-11.455-21.273-18.639
							C245.016,205.497,263.911,208.098,271.973,223.236z"/>
					</g>
				</g>
				<path style="fill:#0C0A3F;" d="M234.905,136.523c0,0,1.267,13.246-13.93,11.444l-11.533-36.051
					c-3.707-8.836-9.308-22.186-15.49-36.922l-9.221-0.518l-6.109-3.148c-0.829-0.427-0.587-1.703,0.343-1.753
					c1.026-0.055,2.628,0.371,5.098,2.018l4.331-1.352c0.222-0.069,0.287-0.353,0.117-0.511l-4.915-4.598l-11.579-1.613
					c-0.304-0.07-0.533-0.338-0.525-0.65c0.024-0.991,3.427-2.243,11.85-1.261c0.703,0.082,1.371,0.336,1.955,0.736
					c1.914,1.31,6.651,4.766,12.565,10.618c9.584,12.531,14.563,21.741,22.221,39.317L234.905,136.523z"/>
				<path style="fill:#DA697C;" d="M278.928,169.097l-0.128-0.032l-19.26-13.982c-1.295-0.953-2.666-1.799-4.079-2.569
					c-0.921-0.503-1.852-0.964-2.805-1.392c-0.161-0.075-0.31-0.15-0.45-0.214c-0.589-0.3-1.178-0.621-1.756-0.974
					c-4.507-2.698-8.757-6.852-12.933-11.455l-0.043-0.043c-0.867-0.964-1.713-1.916-2.58-2.912c0,0-0.024,0.018-0.064,0.049
					l-14.748-23.295c-0.036-0.083-0.07-0.159-0.106-0.242c-2.911,2.026-6.771,2.586-10.109,1.336l10.105,34.588
					c0.001,0.004-0.003,0.011-0.002,0.015c2.195,7.28,1.499,16.541-0.193,23.35c-0.032,0.064-0.064,0.129-0.096,0.203
					c-0.364,0.835-0.857,1.734-1.488,2.655c-0.557,0.824-1.188,1.574-1.863,2.259c0.985,0.749,7.997,9.078,21.337,10.374
					c0.653,0.064,1.306,0.086,1.959,0.107c-1.403-0.792-1.467-0.674-1.606-2.484l6.231-7.997c0,0,4.464,0.193,7.59-3.811
					c0-0.011,0.011-0.011,0.011-0.021c0.043-0.053,0.075-0.118,0.118-0.182l25.855,7.601c-1.113-1.906-1.745-4.111-1.456-6.306
					C276.584,172.03,277.547,170.242,278.928,169.097z"/>
				<path style="opacity:0.34;fill:#DA697C;" d="M224.599,143.598c0,0-8.714-29.808-8.714-29.808
					c-1.991,0.417-4.09,0.311-6.017-0.418c0,0,10.106,34.591,10.106,34.602c2.195,7.28,1.499,16.541-0.193,23.35
					c-0.032,0.064-0.064,0.129-0.096,0.203c-0.364,0.835-0.857,1.734-1.488,2.655c-2.955,4.368-7.933,6.595-12.087,9.582
					c-0.118,0.086-0.225,0.171-0.343,0.268c3.396-1.299,6.792-2.598,10.189-3.898c1.399-0.535,3.013-0.939,4.334-1.652
					c3.151-1.702,4.96-5.788,5.689-9.105c0.909-4.131,0.724-8.577,0.466-12.774C226.183,152.32,225.809,147.732,224.599,143.598z"/>
				<path style="opacity:0.34;fill:#DA697C;" d="M255.616,157.055c-0.126-1.073-0.298-2.141-0.537-3.195
					c-0.379,1.031-0.587,2.133-0.729,3.254c-0.285,2.243-0.354,4.48-0.421,6.738c-0.055,1.832-0.117,3.706-0.518,5.502
					c-0.239,1.071-0.616,2.244-1.347,3.099l3.589,1.055c0.657-3.281,0.753-6.66,0.561-9.998
					C256.091,161.355,255.868,159.199,255.616,157.055z"/>
				<path style="fill:#0C0A3F;" d="M250.455,149.93c-0.467,3.351-1.907,6.262-2.959,8.015c-0.911,1.514-2.35,2.699-4.086,3.062
					c-2.072,0.43-4.004-0.3-5.769-2.479c-2.547-3.145-2.956-7.511-1.425-11.275c1.482-3.67,1.577-6.699,1.267-8.818
					c0.01,0.011,0.03,0.034,0.04,0.045C241.694,143.079,245.943,147.232,250.455,149.93z"/>
				<path style="fill:#0C0A3F;" d="M261.926,133.626c-0.07,0.042-0.121,0.083-0.181,0.125c3.122,3.931-5.094,6.759-8.225,4.986
					c-4.202,5.119-5.615,10.24-5.874,15.363c-0.017,0.03-0.035,0.06-0.053,0.09c-2.419,4.063-14.935,1.79-8.635-9.014l2.434-4.972
					c6.388,1.404,9.046-1.26,9.214-1.43c-1.233,0.546-3.385,0.715-5.218,0.747c-2.438,0.043-4.847-0.598-6.94-1.85
					c-0.011-0.006-0.021-0.013-0.032-0.019c-0.983-0.593-1.533-1.689-1.457-2.838c0.135-1.776-0.209-3.81,0.217-6.378
					c0.41-2.47,1.796-4.675,3.799-6.177l0.069-0.052c0,0,0.554-7.681,6.734-9.403c5.08-1.437,12.931-2.214,17.1,4.782
					C268.077,122.956,266.958,129.907,261.926,133.626z"/>
				<path style="fill:#0C0A3F;" d="M268.724,134.221c-2.173-3.691-6.417-5.222-9.48-3.419s-3.785,6.256-1.612,9.948
					s4.971,2.766,8.034,0.963C268.73,139.91,270.897,137.913,268.724,134.221z"/>
				<path style="fill:#0C0A3F;" d="M268.357,123.714c-4.283-0.018-7.768,2.848-7.783,6.401c-0.015,3.554,3.444,6.45,7.728,6.468
					c4.283,0.018,4.918-2.86,4.933-6.414C273.25,126.616,272.64,123.732,268.357,123.714z"/>
			</g>
		</g>
	</g>
</g>
<g id="TEXTS">
	
		<text transform="matrix(1 0 0 1 133.1042 413.7624)" style="fill:#DA697C; font-family:'PlayfairDisplay-Bold'; font-size:87.2935px;">Ballet</text>
	
		<text transform="matrix(1 0 0 1 163.7497 435.2178)" style="fill:#0C0A3F; font-family:'Raleway-Medium'; font-size:15.7024px; letter-spacing:4;">dance school</text>
</g>
</svg>
